<svg width="50" height="50" viewBox="0 0 50 50" fill="none" xmlns="http://www.w3.org/2000/svg">
<rect x="-1" y="1" width="48" height="48" rx="9" transform="matrix(-1 0 0 1 48 0)" stroke="#D0D0DB" stroke-width="2"/>
<path d="M19.8272 24.4512L29.0778 15.2262C29.3809 14.9241 29.8716 14.9246 30.1742 15.2277C30.4765 15.5308 30.4757 16.0218 30.1726 16.3241L21.4726 25L30.1729 33.6759C30.476 33.9783 30.4768 34.4689 30.1745 34.7721C30.0228 34.924 29.8241 35 29.6254 35C29.4272 35 29.2293 34.9245 29.0778 34.7736L19.8272 25.5489C19.6812 25.4036 19.5993 25.206 19.5993 25C19.5993 24.7941 19.6815 24.5967 19.8272 24.4512Z" fill="#D0D0DB"/>
</svg>
