<svg width="30" height="30" viewBox="0 0 30 30" fill="none" xmlns="http://www.w3.org/2000/svg">
<g id="asic 1" clip-path="url(#clip0_1_261)">
<path id="Vector" d="M28.125 8.11523H26.7188V7.00195C26.7188 6.22652 26.0879 5.5957 25.3125 5.5957H8.14453V2.37305C8.14453 2.11459 8.35482 1.9043 8.61328 1.9043H21.3867C21.6452 1.9043 21.8555 2.11459 21.8555 2.37305V4.48242C21.8555 4.74129 22.0654 4.95117 22.3242 4.95117C22.5831 4.95117 22.793 4.74129 22.793 4.48242V2.37305C22.793 1.59762 22.1621 0.966797 21.3867 0.966797H8.61328C7.83785 0.966797 7.20703 1.59762 7.20703 2.37305V5.5957H4.6875C3.91207 5.5957 3.28125 6.22652 3.28125 7.00195V8.11523H1.875C0.841113 8.11523 0 8.95635 0 9.99023V24.6387C0 25.6726 0.841113 26.5137 1.875 26.5137H3.28125V27.627C3.28125 28.4024 3.91207 29.0332 4.6875 29.0332H25.3125C26.0879 29.0332 26.7188 28.4024 26.7188 27.627V26.5137H28.125C29.1589 26.5137 30 25.6726 30 24.6387V9.99023C30 8.95635 29.1589 8.11523 28.125 8.11523ZM1.875 25.5762C1.35809 25.5762 0.9375 25.1556 0.9375 24.6387V9.99023C0.9375 9.47326 1.35809 9.05273 1.875 9.05273H3.28125V25.5762H1.875ZM25.7812 27.627C25.7812 27.8854 25.571 28.0957 25.3125 28.0957H4.6875C4.42904 28.0957 4.21875 27.8854 4.21875 27.627C4.21875 26.5625 4.21875 8.72783 4.21875 7.00195C4.21875 6.7435 4.42904 6.5332 4.6875 6.5332H25.3125C25.571 6.5332 25.7812 6.7435 25.7812 7.00195V27.627ZM29.0625 24.6387C29.0625 25.1556 28.6419 25.5762 28.125 25.5762H26.7188V9.05273H28.125C28.6419 9.05273 29.0625 9.47326 29.0625 9.99023V24.6387Z" fill="#CFD4E0"/>
<path id="Vector_2" d="M13.7695 2.49023C13.5107 2.49023 13.3008 2.70012 13.3008 2.95898V4.48242C13.3008 4.74129 13.5107 4.95117 13.7695 4.95117H16.2305C16.4893 4.95117 16.6992 4.74129 16.6992 4.48242V2.95898C16.6992 2.70012 16.4893 2.49023 16.2305 2.49023H13.7695ZM15.7617 4.01367H14.2383V3.42773H15.7617V4.01367Z" fill="#CFD4E0"/>
<path id="Vector_3" d="M18.457 2.49023H18.2812C18.0224 2.49023 17.8125 2.70012 17.8125 2.95898C17.8125 3.21785 18.0224 3.42773 18.2812 3.42773H18.457C18.7159 3.42773 18.9258 3.21785 18.9258 2.95898C18.9258 2.70012 18.7159 2.49023 18.457 2.49023Z" fill="#CFD4E0"/>
<path id="Vector_4" d="M18.457 4.01367H18.2812C18.0224 4.01367 17.8125 4.22355 17.8125 4.48242C17.8125 4.74129 18.0224 4.95117 18.2812 4.95117H18.457C18.7159 4.95117 18.9258 4.74129 18.9258 4.48242C18.9258 4.22355 18.7159 4.01367 18.457 4.01367Z" fill="#CFD4E0"/>
<path id="Vector_5" d="M11.7188 2.49023H11.543C11.2841 2.49023 11.0742 2.70012 11.0742 2.95898C11.0742 3.21785 11.2841 3.42773 11.543 3.42773H11.7188C11.9776 3.42773 12.1875 3.21785 12.1875 2.95898C12.1875 2.70012 11.9776 2.49023 11.7188 2.49023Z" fill="#CFD4E0"/>
<path id="Vector_6" d="M11.7188 4.01367H11.543C11.2841 4.01367 11.0742 4.22355 11.0742 4.48242C11.0742 4.74129 11.2841 4.95117 11.543 4.95117H11.7188C11.9776 4.95117 12.1875 4.74129 12.1875 4.48242C12.1875 4.22355 11.9776 4.01367 11.7188 4.01367Z" fill="#CFD4E0"/>
<path id="Vector_7" d="M22.2949 14.9194C22.3071 14.9568 22.3191 14.9942 22.3308 15.0318C22.3933 15.2326 22.5784 15.3614 22.7782 15.3614C23.0931 15.3614 23.32 15.0556 23.2259 14.7533C23.2129 14.7113 23.1995 14.6693 23.1858 14.6275C23.1051 14.3815 22.8403 14.2474 22.5944 14.328C22.3484 14.4086 22.2143 14.6733 22.2949 14.9194Z" fill="#CFD4E0"/>
<path id="Vector_8" d="M23.6021 16.8702C23.5889 16.6117 23.3689 16.4133 23.11 16.4258C22.8515 16.439 22.6526 16.6593 22.6657 16.9179C22.7686 18.9317 22.0852 20.8855 20.7461 22.3976L18.7944 20.4459C20.2987 18.6263 20.2979 16.0015 18.7944 14.1829L20.7487 12.2285C21.1249 12.6535 21.4579 13.123 21.7373 13.6333C21.8616 13.8603 22.1465 13.9436 22.3736 13.8192C22.6006 13.6949 22.684 13.41 22.5596 13.183C22.2368 12.5935 21.8506 12.0521 21.4129 11.5643L22.2748 10.7025C22.4579 10.5194 22.4579 10.2226 22.2748 10.0396C22.0917 9.85649 21.795 9.85649 21.6119 10.0396L20.7501 10.9015C17.49 7.97997 12.5401 7.95448 9.25304 10.9046L8.38808 10.0397C8.20503 9.85655 7.90825 9.85655 7.72521 10.0397C7.5421 10.2227 7.5421 10.5195 7.72521 10.7025L8.59017 11.5675C5.65087 14.8425 5.65263 19.7883 8.59017 23.0614L7.72521 23.9263C7.5421 24.1094 7.5421 24.4061 7.72521 24.5892C7.90825 24.7722 8.20503 24.7723 8.38808 24.5892L9.25304 23.7242C12.528 26.6635 17.4739 26.6618 20.7469 23.7242L21.6119 24.5892C21.7949 24.7722 22.0917 24.7723 22.2747 24.5892C22.4578 24.4061 22.4578 24.1094 22.2747 23.9263L21.4098 23.0614C22.8869 21.4156 23.7217 19.2241 23.6021 16.8702ZM18.1274 19.7788L15.6629 17.3144L18.1273 14.85C19.2592 16.2832 19.281 18.318 18.1274 19.7788ZM14.3372 17.3144L11.8728 19.7788C10.7409 18.3456 10.7191 16.3109 11.8728 14.85L14.3372 17.3144ZM12.5356 14.1871C13.9689 13.0552 16.0036 13.0334 17.4644 14.1871L15 16.6516L12.5356 14.1871ZM15 17.9773L17.4644 20.4417C16.0312 21.5735 13.9965 21.5954 12.5356 20.4417L15 17.9773ZM20.0857 11.5659L18.1315 13.5201C16.3119 12.0157 13.6871 12.0166 11.8685 13.5201L9.91685 11.5684C12.8193 8.9978 17.1768 8.99388 20.0857 11.5659ZM9.25398 12.2312L11.2057 14.1829C9.70134 16.0025 9.70216 18.6273 11.2057 20.4459L9.25398 22.3976C6.68165 19.4932 6.67954 15.1381 9.25398 12.2312ZM9.91685 23.0605L11.8685 21.1088C13.6881 22.6132 16.3129 22.6124 18.1315 21.1088L20.0832 23.0605C17.1788 25.6328 12.8237 25.635 9.91685 23.0605Z" fill="#CFD4E0"/>
</g>
<defs>
<clipPath id="clip0_1_261">
<rect width="30" height="30" fill="white"/>
</clipPath>
</defs>
</svg>
