<svg width="40" height="40" viewBox="0 0 40 40" fill="none" xmlns="http://www.w3.org/2000/svg">
<circle cx="20" cy="20" r="20" fill="white"/>
<g clip-path="url(#clip0_1_224)">
<path d="M31.6378 22.9019C30.0358 29.3361 23.5235 33.2421 17.099 31.6409C10.673 30.0509 6.7588 23.5229 8.3638 17.1051C9.96205 10.6724 16.4781 6.75814 22.8988 8.35939C29.3285 9.96514 33.2428 16.4736 31.6378 22.9064V22.9019ZM25.2898 18.2894C25.5275 16.6994 24.3125 15.8406 22.649 15.2624L23.189 13.1091L21.872 12.7769L21.3493 14.8866C21.005 14.7966 20.6465 14.7186 20.2865 14.6369L20.8108 12.5076L19.49 12.1799L18.9508 14.3436L18.1108 14.1449L16.2988 13.6911L15.9471 15.1019C15.9471 15.1019 16.9243 15.3239 16.9003 15.3359C17.4366 15.4731 17.5333 15.8196 17.5183 16.1016L16.0415 22.0229C15.9673 22.1879 15.7993 22.4301 15.4288 22.3356C15.4408 22.3544 14.4681 22.0979 14.4681 22.0979L13.8081 23.6046L15.5188 24.0306L16.448 24.2729L15.905 26.4651L17.2258 26.7891L17.7688 24.6209C18.128 24.7229 18.4715 24.8121 18.815 24.8946L18.308 27.0464L19.628 27.3786L20.171 25.1879C22.4128 25.6131 24.101 25.4451 24.812 23.4141C25.382 21.7769 24.7798 20.8364 23.597 20.2191C24.4483 20.0234 25.097 19.4571 25.2763 18.2894H25.2898ZM22.2778 22.5119C21.8758 24.1521 19.1218 23.2619 18.2278 23.0391L18.95 20.1411C19.8448 20.3714 22.7038 20.8124 22.2778 22.5119ZM22.6888 18.2699C22.3168 19.7616 20.0278 19.0079 19.2815 18.8196L19.9385 16.1796C20.6803 16.3589 23.0743 16.7024 22.6888 18.2654V18.2699Z" fill="#0066FF"/>
</g>
<defs>
<clipPath id="clip0_1_224">
<rect width="24" height="24" fill="white" transform="translate(8 8)"/>
</clipPath>
</defs>
</svg>
