<svg width="420" height="310" viewBox="0 0 420 310" fill="none" xmlns="http://www.w3.org/2000/svg">
<g opacity="0.7">
<g filter="url(#filter0_f_1_500)">
<path d="M62.609 248.528C62.1504 232.063 79.6876 221.276 94.1758 229.111L360.561 373.173C375.049 381.009 375.622 401.59 361.593 410.219L103.639 568.885C89.609 577.514 71.4987 567.72 71.0401 551.255L62.609 248.528Z" fill="#8000FF"/>
</g>
<g filter="url(#filter1_f_1_500)">
<path d="M80.3474 405.061C79.8889 388.596 97.426 377.809 111.914 385.645L262.683 467.181C277.171 475.016 277.744 495.597 263.714 504.227L117.718 594.028C103.688 602.658 85.5778 592.863 85.1193 576.399L80.3474 405.061Z" fill="#2CFFFF"/>
</g>
<g filter="url(#filter2_f_1_500)">
<circle cx="46.3815" cy="334.892" r="104.309" transform="rotate(-31.5953 46.3815 334.892)" fill="#4200FF"/>
</g>
<g filter="url(#filter3_f_1_500)">
<circle cx="45.5456" cy="467.287" r="104.309" transform="rotate(-31.5953 45.5456 467.287)" fill="#00C2FF"/>
</g>
<g filter="url(#filter4_f_1_500)">
<circle cx="-48.2415" cy="267.164" r="104.309" transform="rotate(-31.5953 -48.2415 267.164)" fill="#00C2FF"/>
</g>
</g>
<defs>
<filter id="filter0_f_1_500" x="-97.8756" y="66.0271" width="630.131" height="666.536" filterUnits="userSpaceOnUse" color-interpolation-filters="sRGB">
<feFlood flood-opacity="0" result="BackgroundImageFix"/>
<feBlend mode="normal" in="SourceGraphic" in2="BackgroundImageFix" result="shape"/>
<feGaussianBlur stdDeviation="80.2379" result="effect1_foregroundBlur_1_500"/>
</filter>
<filter id="filter1_f_1_500" x="-80.1372" y="222.56" width="514.514" height="535.146" filterUnits="userSpaceOnUse" color-interpolation-filters="sRGB">
<feFlood flood-opacity="0" result="BackgroundImageFix"/>
<feBlend mode="normal" in="SourceGraphic" in2="BackgroundImageFix" result="shape"/>
<feGaussianBlur stdDeviation="80.2379" result="effect1_foregroundBlur_1_500"/>
</filter>
<filter id="filter2_f_1_500" x="-218.418" y="70.0921" width="529.599" height="529.599" filterUnits="userSpaceOnUse" color-interpolation-filters="sRGB">
<feFlood flood-opacity="0" result="BackgroundImageFix"/>
<feBlend mode="normal" in="SourceGraphic" in2="BackgroundImageFix" result="shape"/>
<feGaussianBlur stdDeviation="80.2379" result="effect1_foregroundBlur_1_500"/>
</filter>
<filter id="filter3_f_1_500" x="-219.254" y="202.487" width="529.599" height="529.599" filterUnits="userSpaceOnUse" color-interpolation-filters="sRGB">
<feFlood flood-opacity="0" result="BackgroundImageFix"/>
<feBlend mode="normal" in="SourceGraphic" in2="BackgroundImageFix" result="shape"/>
<feGaussianBlur stdDeviation="80.2379" result="effect1_foregroundBlur_1_500"/>
</filter>
<filter id="filter4_f_1_500" x="-313.041" y="2.36459" width="529.599" height="529.599" filterUnits="userSpaceOnUse" color-interpolation-filters="sRGB">
<feFlood flood-opacity="0" result="BackgroundImageFix"/>
<feBlend mode="normal" in="SourceGraphic" in2="BackgroundImageFix" result="shape"/>
<feGaussianBlur stdDeviation="80.2379" result="effect1_foregroundBlur_1_500"/>
</filter>
</defs>
</svg>
