<svg width="30" height="30" viewBox="0 0 30 30" fill="none" xmlns="http://www.w3.org/2000/svg">
<g id="chart 1" opacity="0.6" clip-path="url(#clip0_1_200)">
<g id="Group">
<g id="Group_2">
<path id="Vector" d="M7.09138 13.1611H6.68438V12.0176C6.68438 11.7749 6.48762 11.5781 6.24492 11.5781C6.00223 11.5781 5.80547 11.7749 5.80547 12.0176V13.1611H5.39818C4.83561 13.1611 4.37799 13.6187 4.37799 14.1812V20.9052C4.37799 21.4677 4.83567 21.9254 5.39818 21.9254H5.80547V23.0688C5.80547 23.3115 6.00223 23.5083 6.24492 23.5083C6.48762 23.5083 6.68438 23.3115 6.68438 23.0688V21.9254H7.09138C7.65394 21.9254 8.11156 21.4677 8.11156 20.9052V19.0542C8.11156 18.8115 7.9148 18.6147 7.67211 18.6147C7.42941 18.6147 7.23265 18.8115 7.23265 19.0542V20.9052C7.23265 20.9831 7.16925 21.0464 7.09138 21.0464H5.39818C5.32025 21.0464 5.25691 20.983 5.25691 20.9052V14.1812C5.25691 14.1033 5.3203 14.04 5.39818 14.04H7.09138C7.16931 14.04 7.23265 14.1034 7.23265 14.1812V17.001C7.23265 17.2437 7.42941 17.4404 7.67211 17.4404C7.9148 17.4404 8.11156 17.2437 8.11156 17.001V14.1812C8.11156 13.6187 7.65388 13.1611 7.09138 13.1611Z" fill="url(#paint0_linear_1_200)"/>
<path id="Vector_2" d="M11.4691 10.4311H11.0621V8.41651C11.0621 8.17381 10.8653 7.97705 10.6226 7.97705C10.3799 7.97705 10.1832 8.17381 10.1832 8.41651V10.431H9.77586C9.21336 10.431 8.75568 10.8887 8.75568 11.4512V18.1752C8.75568 18.7377 9.21336 19.1953 9.77586 19.1953H10.1832V19.4677C10.1832 19.7104 10.3799 19.9071 10.6226 19.9071C10.8653 19.9071 11.0621 19.7104 11.0621 19.4677V19.1953H11.4691C12.0316 19.1953 12.4892 18.7377 12.4892 18.1752V11.4513C12.4892 10.8887 12.0316 10.4311 11.4691 10.4311ZM11.6103 18.1752C11.6103 18.2531 11.5469 18.3165 11.4691 18.3165H9.77586C9.69799 18.3165 9.63459 18.2531 9.63459 18.1752V11.4513C9.63459 11.3734 9.69799 11.31 9.77586 11.31H11.4691C11.547 11.31 11.6103 11.3734 11.6103 11.4513V18.1752Z" fill="url(#paint1_linear_1_200)"/>
<path id="Vector_3" d="M2.71339 11.7091H2.30639V10.5657C2.30639 10.323 2.10963 10.1262 1.86693 10.1262C1.62423 10.1262 1.42747 10.323 1.42747 10.5657V11.7091H1.02019C0.45768 11.7091 0 12.1668 0 12.7293V13.9363C0 14.4989 0.45768 14.9565 1.02019 14.9565H1.42747V24.5206C1.42747 24.7633 1.62423 24.96 1.86693 24.96C2.10963 24.96 2.30639 24.7633 2.30639 24.5206V14.9565H2.71339C3.27595 14.9565 3.73357 14.4988 3.73357 13.9363V12.7293C3.73357 12.1668 3.27595 11.7091 2.71339 11.7091ZM2.85466 13.9363C2.85466 14.0142 2.79126 14.0776 2.71339 14.0776H1.02019C0.942255 14.0776 0.878915 14.0142 0.878915 13.9363V12.7293C0.878915 12.6513 0.942314 12.588 1.02019 12.588H2.71339C2.79132 12.588 2.85466 12.6514 2.85466 12.7293V13.9363Z" fill="url(#paint2_linear_1_200)"/>
<path id="Vector_4" d="M15.8467 14.0891H15.4398V13.5264C15.4398 13.2837 15.243 13.0869 15.0003 13.0869C14.7576 13.0869 14.5608 13.2837 14.5608 13.5264V14.0891H14.1535C13.591 14.0891 13.1334 14.5468 13.1334 15.1093V18.9296C13.1334 19.4922 13.591 19.9498 14.1535 19.9498H14.5608V21.674C14.5608 21.9167 14.7576 22.1135 15.0003 22.1135C15.243 22.1135 15.4398 21.9167 15.4398 21.674V19.9498H15.8467C16.4093 19.9498 16.8669 19.4922 16.8669 18.9296V15.1093C16.8669 14.5468 16.4093 14.0891 15.8467 14.0891ZM15.988 18.9296C15.988 19.0075 15.9246 19.0709 15.8467 19.0709H14.1535C14.0756 19.0709 14.0123 19.0075 14.0123 18.9296V15.1093C14.0123 15.0314 14.0757 14.968 14.1535 14.968H15.8467C15.9247 14.968 15.988 15.0314 15.988 15.1093V18.9296Z" fill="url(#paint3_linear_1_200)"/>
<path id="Vector_5" d="M20.2245 16.1204H18.5313C17.9687 16.1204 17.5111 16.578 17.5111 17.1405V21.5416C17.5111 22.1041 17.9688 22.5618 18.5313 22.5618H18.9386V27.6109C18.9386 27.8536 19.1353 28.0503 19.378 28.0503C19.6207 28.0503 19.8175 27.8536 19.8175 27.6109V22.5618H20.2245C20.787 22.5618 21.2447 22.1041 21.2447 21.5416V17.1405C21.2446 16.578 20.787 16.1204 20.2245 16.1204ZM20.3657 21.5416C20.3657 21.6196 20.3023 21.6829 20.2244 21.6829H18.5312C18.4533 21.6829 18.39 21.6195 18.39 21.5416V17.1406C18.39 17.0627 18.4534 16.9993 18.5312 16.9993H20.2244C20.3023 16.9993 20.3657 17.0627 20.3657 17.1406V21.5416Z" fill="url(#paint4_linear_1_200)"/>
<path id="Vector_6" d="M25.6223 15.6786V12.439C25.6223 11.8765 25.1646 11.4189 24.6021 11.4189H24.1951V10.2754C24.1951 10.0327 23.9984 9.83594 23.7557 9.83594C23.513 9.83594 23.3162 10.0327 23.3162 10.2754V11.4189H22.9089C22.3464 11.4189 21.8887 11.8765 21.8887 12.439V15.6786C21.8887 16.2412 22.3464 16.6988 22.9089 16.6988H23.3162V21.3266C23.3162 21.5693 23.513 21.7661 23.7557 21.7661C23.9984 21.7661 24.1951 21.5693 24.1951 21.3266V16.6989H24.6021C25.1647 16.6989 25.6223 16.2412 25.6223 15.6786ZM22.7676 15.6786V12.439C22.7676 12.3611 22.831 12.2978 22.9089 12.2978H24.6021C24.6801 12.2978 24.7434 12.3612 24.7434 12.439V15.6786C24.7434 15.7565 24.68 15.8199 24.6021 15.8199H22.9089C22.831 15.8199 22.7676 15.7565 22.7676 15.6786Z" fill="url(#paint5_linear_1_200)"/>
<path id="Vector_7" d="M28.9798 10.2572H28.5728V9.11377C28.5728 8.87108 28.376 8.67432 28.1334 8.67432C27.8907 8.67432 27.6939 8.87108 27.6939 9.11377V10.2572H27.2866C26.724 10.2572 26.2664 10.7149 26.2664 11.2774V14.9198C26.2664 15.1625 26.4632 15.3592 26.7059 15.3592C26.9486 15.3592 27.1453 15.1625 27.1453 14.9198V11.2774C27.1453 11.1996 27.2087 11.1362 27.2866 11.1362H28.9798C29.0577 11.1362 29.1211 11.1996 29.1211 11.2774V19.1629C29.1211 19.2408 29.0577 19.3041 28.9798 19.3041H27.2866C27.2087 19.3041 27.1453 19.2407 27.1453 19.1629V16.9729C27.1453 16.7302 26.9486 16.5335 26.7059 16.5335C26.4632 16.5335 26.2664 16.7302 26.2664 16.9729V19.1628C26.2664 19.7254 26.7241 20.183 27.2866 20.183H27.6939V23.0687C27.6939 23.3114 27.8907 23.5081 28.1334 23.5081C28.376 23.5081 28.5728 23.3114 28.5728 23.0687V20.183H28.9798C29.5424 20.183 30 19.7253 30 19.1628V11.2774C30 10.7149 29.5424 10.2572 28.9798 10.2572Z" fill="url(#paint6_linear_1_200)"/>
<path id="Vector_8" d="M13.206 10.4665C13.206 10.7092 13.4027 10.906 13.6454 10.906C13.8881 10.906 14.0849 10.7092 14.0849 10.4665V10.2921H14.2593C14.502 10.2921 14.6988 10.0954 14.6988 9.85266C14.6988 9.60996 14.502 9.4132 14.2593 9.4132H14.0849V9.23877C14.0849 8.99607 13.8881 8.79932 13.6454 8.79932C13.4027 8.79932 13.206 8.99607 13.206 9.23877V9.4132H13.0316C12.7889 9.4132 12.5921 9.60996 12.5921 9.85266C12.5921 10.0954 12.7889 10.2921 13.0316 10.2921H13.206V10.4665Z" fill="url(#paint7_linear_1_200)"/>
<path id="Vector_9" d="M26.4106 22.2599H26.2362V22.0854C26.2362 21.8428 26.0394 21.646 25.7967 21.646C25.5541 21.646 25.3573 21.8428 25.3573 22.0854V22.2599H25.1829C24.9402 22.2599 24.7434 22.4566 24.7434 22.6993C24.7434 22.942 24.9402 23.1388 25.1829 23.1388H25.3573V23.3132C25.3573 23.5559 25.5541 23.7527 25.7967 23.7527C26.0394 23.7527 26.2362 23.5559 26.2362 23.3132V23.1388H26.4106C26.6533 23.1388 26.8501 22.942 26.8501 22.6993C26.8501 22.4566 26.6533 22.2599 26.4106 22.2599Z" fill="url(#paint8_linear_1_200)"/>
<path id="Vector_10" d="M19.3777 10.7386C21.8008 10.7386 23.7721 8.76721 23.7721 6.34404C23.7721 3.92087 21.8008 1.94946 19.3777 1.94946C18.6099 1.94946 17.8528 2.15167 17.1885 2.53418C16.9782 2.65529 16.9059 2.92395 17.027 3.1343C17.148 3.34465 17.4167 3.41702 17.6271 3.29584C18.1582 2.99004 18.7636 2.82838 19.3777 2.82838C21.3162 2.82838 22.8933 4.4055 22.8933 6.34404C22.8933 8.28257 21.3162 9.8597 19.3777 9.8597C17.4393 9.8597 15.8622 8.28257 15.8622 6.34404C15.8622 5.72657 16.0254 5.11842 16.3343 4.58515C16.456 4.37515 16.3844 4.10626 16.1744 3.98462C15.9644 3.86304 15.6956 3.93458 15.5739 4.14458C15.1875 4.81144 14.9833 5.572 14.9833 6.34398C14.9833 8.7672 16.9546 10.7386 19.3777 10.7386Z" fill="url(#paint9_linear_1_200)"/>
<path id="Vector_11" d="M18.0747 7.93189C18.0747 8.13281 18.2097 8.30186 18.3938 8.35424V8.53846C18.3938 8.78115 18.5906 8.97791 18.8333 8.97791C19.076 8.97791 19.2727 8.78115 19.2727 8.53846V8.37129H19.7164V8.53846C19.7164 8.78115 19.9132 8.97791 20.1559 8.97791C20.3986 8.97791 20.5954 8.78115 20.5954 8.53846V8.1065C20.8822 7.88057 21.0673 7.53105 21.0673 7.13848C21.0673 6.83637 20.9576 6.55969 20.7766 6.34506C20.9576 6.13043 21.0673 5.85375 21.0673 5.55164C21.0673 5.15906 20.8822 4.80955 20.5954 4.58361V4.1499C20.5954 3.90721 20.3986 3.71045 20.1559 3.71045C19.9132 3.71045 19.7164 3.90721 19.7164 4.1499V4.31883H19.2727V4.1499C19.2727 3.90721 19.076 3.71045 18.8333 3.71045C18.5906 3.71045 18.3938 3.90721 18.3938 4.1499V4.33588C18.2097 4.38826 18.0747 4.5573 18.0747 4.75822V7.93189ZM20.1884 5.55164C20.1884 5.74682 20.0296 5.90561 19.8344 5.90561H18.9536V5.19768H19.8344C20.0296 5.19768 20.1884 5.35646 20.1884 5.55164ZM20.1884 7.13848C20.1884 7.33365 20.0296 7.49244 19.8344 7.49244H18.9536V6.78451H19.8344C20.0296 6.78451 20.1884 6.9433 20.1884 7.13848Z" fill="url(#paint10_linear_1_200)"/>
</g>
</g>
</g>
<defs>
<linearGradient id="paint0_linear_1_200" x1="6.24478" y1="11.5781" x2="6.24478" y2="23.5083" gradientUnits="userSpaceOnUse">
<stop stop-color="white"/>
<stop offset="1" stop-color="white"/>
</linearGradient>
<linearGradient id="paint1_linear_1_200" x1="10.6225" y1="7.97705" x2="10.6225" y2="19.9071" gradientUnits="userSpaceOnUse">
<stop stop-color="white"/>
<stop offset="1" stop-color="white"/>
</linearGradient>
<linearGradient id="paint2_linear_1_200" x1="1.86679" y1="10.1262" x2="1.86679" y2="24.96" gradientUnits="userSpaceOnUse">
<stop stop-color="white"/>
<stop offset="1" stop-color="white"/>
</linearGradient>
<linearGradient id="paint3_linear_1_200" x1="15.0001" y1="13.0869" x2="15.0001" y2="22.1135" gradientUnits="userSpaceOnUse">
<stop stop-color="white"/>
<stop offset="1" stop-color="white"/>
</linearGradient>
<linearGradient id="paint4_linear_1_200" x1="19.3779" y1="16.1204" x2="19.3779" y2="28.0503" gradientUnits="userSpaceOnUse">
<stop stop-color="white"/>
<stop offset="1" stop-color="white"/>
</linearGradient>
<linearGradient id="paint5_linear_1_200" x1="23.7555" y1="9.83594" x2="23.7555" y2="21.7661" gradientUnits="userSpaceOnUse">
<stop stop-color="white"/>
<stop offset="1" stop-color="white"/>
</linearGradient>
<linearGradient id="paint6_linear_1_200" x1="28.1332" y1="8.67432" x2="28.1332" y2="23.5081" gradientUnits="userSpaceOnUse">
<stop stop-color="white"/>
<stop offset="1" stop-color="white"/>
</linearGradient>
<linearGradient id="paint7_linear_1_200" x1="13.6454" y1="8.79932" x2="13.6454" y2="10.906" gradientUnits="userSpaceOnUse">
<stop stop-color="white"/>
<stop offset="1" stop-color="white"/>
</linearGradient>
<linearGradient id="paint8_linear_1_200" x1="25.7967" y1="21.646" x2="25.7967" y2="23.7527" gradientUnits="userSpaceOnUse">
<stop stop-color="white"/>
<stop offset="1" stop-color="white"/>
</linearGradient>
<linearGradient id="paint9_linear_1_200" x1="19.3777" y1="1.94946" x2="19.3777" y2="10.7386" gradientUnits="userSpaceOnUse">
<stop stop-color="white"/>
<stop offset="1" stop-color="white"/>
</linearGradient>
<linearGradient id="paint10_linear_1_200" x1="19.571" y1="3.71045" x2="19.571" y2="8.97791" gradientUnits="userSpaceOnUse">
<stop stop-color="white"/>
<stop offset="1" stop-color="white"/>
</linearGradient>
<clipPath id="clip0_1_200">
<rect width="30" height="30" fill="white"/>
</clipPath>
</defs>
</svg>
