<svg width="30" height="30" viewBox="0 0 30 30" fill="none" xmlns="http://www.w3.org/2000/svg">
<g id="cryptocurrency 2" clip-path="url(#clip0_1_422)">
<g id="Group">
<path id="Vector" d="M27.6562 24.8438V9.375C27.6562 8.08266 26.6048 7.03125 25.3125 7.03125H18.7261C18.4833 3.37266 15.4378 0.46875 11.7188 0.46875C7.99969 0.46875 4.95422 3.37266 4.71141 7.03125H4.6875C3.39516 7.03125 2.34375 8.08266 2.34375 9.375V24.8438H0.46875V27.1875C0.46875 28.4798 1.52016 29.5312 2.8125 29.5312H27.1875C28.4798 29.5312 29.5312 28.4798 29.5312 27.1875V24.8438H27.6562ZM24.8438 13.9195C23.91 12.5911 22.3687 11.7188 20.625 11.7188C17.782 11.7188 15.4688 14.032 15.4688 16.875C15.4688 19.718 17.782 22.0312 20.625 22.0312C22.3687 22.0312 23.91 21.1589 24.8438 19.8305V22.9688H12.9263C13.0552 22.5136 13.125 22.0434 13.125 21.5625C13.125 18.7195 10.8117 16.4062 7.96875 16.4062C6.95437 16.4062 5.98594 16.6992 5.15625 17.2416V10.0036C6.16828 12.6464 8.72437 14.5312 11.7188 14.5312C14.7731 14.5312 17.3714 12.57 18.3398 9.84375H24.8438V13.9195ZM24.8438 16.875C24.8438 19.2009 22.9514 21.0938 20.625 21.0938C18.2986 21.0938 16.4062 19.2009 16.4062 16.875C16.4062 14.5491 18.2986 12.6562 20.625 12.6562C22.9514 12.6562 24.8438 14.5491 24.8438 16.875ZM8.4375 20.1562C8.69625 20.1562 8.90625 20.3667 8.90625 20.625C8.90625 20.8833 8.69625 21.0938 8.4375 21.0938H7.03125V20.1562H8.4375ZM8.4375 22.0312C8.69625 22.0312 8.90625 22.2417 8.90625 22.5C8.90625 22.7583 8.69625 22.9688 8.4375 22.9688H7.03125V22.0312H8.4375ZM9.48469 21.5625C9.70781 21.3136 9.84375 20.985 9.84375 20.625C9.84375 19.8497 9.21281 19.2188 8.4375 19.2188V18.2812H7.5V19.2188H6.09375V22.9688H5.15625V18.4242C5.93109 17.7286 6.91922 17.3438 7.96875 17.3438C10.2952 17.3438 12.1875 19.2366 12.1875 21.5625C12.1875 22.0472 12.1017 22.5183 11.9423 22.9688H9.7575C9.81 22.8216 9.84375 22.665 9.84375 22.5C9.84375 22.14 9.70781 21.8114 9.48469 21.5625ZM11.7188 1.40625C15.0787 1.40625 17.8125 4.14 17.8125 7.5C17.8125 10.86 15.0787 13.5938 11.7188 13.5938C8.35875 13.5938 5.625 10.86 5.625 7.5C5.625 4.14 8.35875 1.40625 11.7188 1.40625ZM3.28125 9.375C3.28125 8.59969 3.91219 7.96875 4.6875 7.96875H4.71141C4.73391 8.30719 4.77469 8.64047 4.84312 8.96391C4.48031 9.09375 4.21875 9.43688 4.21875 9.84375V22.9688C4.21875 23.4858 4.63922 23.9062 5.15625 23.9062H6.09375H8.4375H24.8438C25.3608 23.9062 25.7812 23.4858 25.7812 22.9688V9.84375C25.7812 9.32672 25.3608 8.90625 24.8438 8.90625H18.6084C18.6708 8.60109 18.7055 8.28656 18.7266 7.96875H25.3125C26.0878 7.96875 26.7188 8.59969 26.7188 9.375V24.8438H3.28125V9.375ZM11.7188 25.7812H18.2812V26.25C18.2812 26.5083 18.0713 26.7188 17.8125 26.7188H12.1875C11.9288 26.7188 11.7188 26.5083 11.7188 26.25V25.7812ZM28.5938 27.1875C28.5938 27.9628 27.9628 28.5938 27.1875 28.5938H2.8125C2.03719 28.5938 1.40625 27.9628 1.40625 27.1875V25.7812H10.7812V26.25C10.7812 27.0253 11.4122 27.6562 12.1875 27.6562H17.8125C18.5878 27.6562 19.2188 27.0253 19.2188 26.25V25.7812H28.5938V27.1875Z" fill="white"/>
<path id="Vector_2" d="M21.0938 14.5312V13.5938H20.1562V14.5312H18.75V19.2188H20.1562V20.1562H21.0938V19.2188C21.8691 19.2188 22.5 18.5878 22.5 17.8125C22.5 17.4525 22.3641 17.1239 22.1409 16.875C22.3641 16.6261 22.5 16.2975 22.5 15.9375C22.5 15.1622 21.8691 14.5312 21.0938 14.5312ZM21.0938 18.2812H19.6875V17.3438H21.0938C21.3525 17.3438 21.5625 17.5542 21.5625 17.8125C21.5625 18.0708 21.3525 18.2812 21.0938 18.2812ZM21.0938 16.4062H19.6875V15.4688H21.0938C21.3525 15.4688 21.5625 15.6792 21.5625 15.9375C21.5625 16.1958 21.3525 16.4062 21.0938 16.4062Z" fill="white"/>
<path id="Vector_3" d="M11.25 10.7812H12.1875V9.84375C12.9628 9.84375 13.5938 9.21281 13.5938 8.4375C13.5938 8.0775 13.4578 7.74891 13.2347 7.5C13.4578 7.25109 13.5938 6.9225 13.5938 6.5625C13.5938 5.78719 12.9628 5.15625 12.1875 5.15625V4.21875H11.25V5.15625H9.84375V9.84375H11.25V10.7812ZM10.7812 6.09375H12.1875C12.4462 6.09375 12.6562 6.30422 12.6562 6.5625C12.6562 6.82078 12.4462 7.03125 12.1875 7.03125H10.7812V6.09375ZM10.7812 7.96875H12.1875C12.4462 7.96875 12.6562 8.17922 12.6562 8.4375C12.6562 8.69578 12.4462 8.90625 12.1875 8.90625H10.7812V7.96875Z" fill="white"/>
<path id="Vector_4" d="M11.7188 12.6562C14.5617 12.6562 16.875 10.343 16.875 7.5C16.875 4.65703 14.5617 2.34375 11.7188 2.34375C8.87578 2.34375 6.5625 4.65703 6.5625 7.5C6.5625 10.343 8.87578 12.6562 11.7188 12.6562ZM11.7188 3.28125C14.0452 3.28125 15.9375 5.17406 15.9375 7.5C15.9375 9.82594 14.0452 11.7188 11.7188 11.7188C9.39234 11.7188 7.5 9.82594 7.5 7.5C7.5 5.17406 9.39234 3.28125 11.7188 3.28125Z" fill="white"/>
<path id="Vector_5" d="M25.7812 26.7188H26.7188V27.6562H25.7812V26.7188Z" fill="white"/>
<path id="Vector_6" d="M22.0312 26.7188H22.9688V27.6562H22.0312V26.7188Z" fill="white"/>
<path id="Vector_7" d="M23.9062 26.7188H24.8438V27.6562H23.9062V26.7188Z" fill="white"/>
</g>
</g>
<defs>
<clipPath id="clip0_1_422">
<rect width="30" height="30" fill="white"/>
</clipPath>
</defs>
</svg>
