<svg width="40" height="40" viewBox="0 0 40 40" fill="none" xmlns="http://www.w3.org/2000/svg">
<circle cx="20" cy="20" r="20" fill="#0066FF"/>
<g clip-path="url(#clip0_1_232)">
<path d="M33 20C33 13.3726 27.6274 8 21 8C14.3726 8 9 13.3726 9 20C9 26.6274 14.3726 32 21 32C27.6274 32 33 26.6274 33 20Z" fill="#0066FF"/>
<path d="M20.9973 11L20.877 11.4087V23.2692L20.9973 23.3893L26.5028 20.135L20.9973 11Z" fill="white"/>
<path d="M20.9977 11L15.4922 20.135L20.9977 23.3893V17.6326V11Z" fill="#ECECEC"/>
<path d="M20.9993 24.4314L20.9316 24.514V28.7389L20.9993 28.9369L26.5082 21.1787L20.9993 24.4314Z" fill="white"/>
<path d="M20.9977 28.9369V24.4314L15.4922 21.1787L20.9977 28.9369Z" fill="#ECECEC"/>
<path d="M20.998 23.3895L26.5035 20.1352L20.998 17.6328V23.3895Z" fill="#F8F8F8"/>
<path d="M15.4922 20.1347L20.9976 23.389V17.6323L15.4922 20.1347Z" fill="#D9D9D9"/>
</g>
<defs>
<clipPath id="clip0_1_232">
<rect width="24" height="24" fill="white" transform="translate(9 8)"/>
</clipPath>
</defs>
</svg>
