<svg width="30" height="30" viewBox="0 0 30 30" fill="none" xmlns="http://www.w3.org/2000/svg">
<g id="heater 1" opacity="0.6">
<g id="Group">
<path id="Vector" d="M28.7791 3.19629H23.8434C23.1702 3.19629 22.6225 3.74401 22.6225 4.4172V6.33339H21.3255V5.16495C21.3255 4.07943 20.4423 3.19629 19.3568 3.19629H18.8455C17.76 3.19629 16.8768 4.07943 16.8768 5.16495V6.33345H15.6999V5.16495C15.6999 4.07943 14.8167 3.19629 13.7312 3.19629H13.2199C12.1344 3.19629 11.2513 4.07943 11.2513 5.16495V6.33345H10.0743V5.16495C10.0743 4.07943 9.19117 3.19629 8.10559 3.19629H7.59436C6.50884 3.19629 5.62569 4.07943 5.62569 5.16495V6.33345H4.44862V5.16495C4.44862 4.07943 3.56548 3.19629 2.4799 3.19629H1.96866C0.883143 3.19629 0 4.07943 0 5.16495V13.487C0 13.7304 0.197266 13.9277 0.440719 13.9277C0.684114 13.9277 0.881439 13.7304 0.881439 13.487V5.16495C0.881439 4.56546 1.36917 4.07773 1.96866 4.07773H2.4799C3.07939 4.07773 3.56718 4.56546 3.56718 5.16495V24.8351C3.56718 25.4346 3.07939 25.9223 2.4799 25.9223H1.96866C1.36917 25.9223 0.881439 25.4346 0.881439 24.8351V15.2498C0.881439 15.0064 0.684114 14.8091 0.440719 14.8091C0.197266 14.8091 0 15.0064 0 15.2498V24.8351C0 25.9206 0.883143 26.8037 1.96866 26.8037H2.4799C3.56548 26.8037 4.44862 25.9206 4.44862 24.8351V24.1662H5.62558V24.8351C5.62558 25.9206 6.50872 26.8037 7.59424 26.8037H8.10548C9.19106 26.8037 10.0742 25.9206 10.0742 24.8351V24.1662H11.2512V24.8351C11.2512 25.9206 12.1343 26.8037 13.2198 26.8037H13.7311C14.8166 26.8037 15.6998 25.9206 15.6998 24.8351V24.1662H16.8767V24.8351C16.8767 25.9206 17.7599 26.8037 18.8454 26.8037H19.3567C20.4422 26.8037 21.3254 25.9206 21.3254 24.8351V24.1662H22.6224V25.5828C22.6224 26.256 23.1701 26.8037 23.8433 26.8037H28.779C29.4522 26.8037 29.9999 26.256 29.9999 25.5828V4.4172C30 3.74401 29.4523 3.19629 28.7791 3.19629ZM4.44862 23.2848V7.21488H5.62558V23.2849H4.44862V23.2848ZM9.19276 24.8351C9.19276 25.4346 8.70497 25.9223 8.10548 25.9223H7.59424C6.99474 25.9223 6.50702 25.4346 6.50702 24.8351V5.16495C6.50702 4.56546 6.99474 4.07773 7.59424 4.07773H8.10548C8.70497 4.07773 9.19276 4.56546 9.19276 5.16495V24.8351ZM14.8184 24.8351C14.8184 25.4346 14.3306 25.9223 13.7311 25.9223H13.2199C12.6204 25.9223 12.1327 25.4346 12.1327 24.8351V17.3906C12.1327 17.1472 11.9354 16.9498 11.6919 16.9498C11.4485 16.9498 11.2512 17.1472 11.2512 17.3906V23.2849H10.0743V7.21488H11.2512V15.6277C11.2512 15.8711 11.4485 16.0684 11.6919 16.0684C11.9354 16.0684 12.1327 15.8711 12.1327 15.6277V5.16495C12.1327 4.56546 12.6204 4.07773 13.2199 4.07773H13.7311C14.3306 4.07773 14.8184 4.56546 14.8184 5.16495V24.8351ZM15.6998 23.2848V7.21488H16.8768V23.2849H15.6998V23.2848ZM20.444 24.8351C20.444 25.4346 19.9562 25.9223 19.3567 25.9223H18.8455C18.246 25.9223 17.7582 25.4346 17.7582 24.8351V5.16495C17.7582 4.56546 18.246 4.07773 18.8455 4.07773H19.3567C19.9562 4.07773 20.444 4.56546 20.444 5.16495V24.8351ZM21.3254 23.2848V7.21488H22.6224V23.2849H21.3254V23.2848ZM29.1186 25.5828C29.1186 25.7701 28.9663 25.9223 28.7791 25.9223H23.8434C23.6562 25.9223 23.5039 25.77 23.5039 25.5828V4.4172C23.5039 4.22998 23.6562 4.07773 23.8434 4.07773H28.7791C28.9663 4.07773 29.1186 4.23004 29.1186 4.4172V25.5828Z" fill="url(#paint0_linear_1_208)"/>
<path id="Vector_2" d="M27.127 16.209H25.4954C25.252 16.209 25.0547 16.4063 25.0547 16.6497C25.0547 16.8931 25.252 17.0904 25.4954 17.0904H27.127C27.3705 17.0904 27.5678 16.8931 27.5678 16.6497C27.5678 16.4063 27.3704 16.209 27.127 16.209Z" fill="url(#paint1_linear_1_208)"/>
<path id="Vector_3" d="M27.127 18.4453H25.4954C25.252 18.4453 25.0547 18.6426 25.0547 18.886C25.0547 19.1294 25.252 19.3267 25.4954 19.3267H27.127C27.3705 19.3267 27.5678 19.1294 27.5678 18.886C27.5678 18.6426 27.3704 18.4453 27.127 18.4453Z" fill="url(#paint2_linear_1_208)"/>
<path id="Vector_4" d="M27.127 20.6816H25.4954C25.252 20.6816 25.0547 20.879 25.0547 21.1224C25.0547 21.3658 25.252 21.5631 25.4954 21.5631H27.127C27.3705 21.5631 27.5678 21.3658 27.5678 21.1224C27.5678 20.879 27.3704 20.6816 27.127 20.6816Z" fill="url(#paint3_linear_1_208)"/>
<path id="Vector_5" d="M26.4467 5.85571H26.1758C25.4864 5.85571 24.9255 6.4166 24.9255 7.106V8.54821C24.9255 9.23762 25.4864 9.79851 26.1758 9.79851H26.4467C27.1361 9.79851 27.697 9.23762 27.697 8.54821V7.106C27.697 6.4166 27.1362 5.85571 26.4467 5.85571ZM26.8156 8.54827C26.8156 8.75171 26.6501 8.91713 26.4468 8.91713H26.1759C25.9725 8.91713 25.807 8.75165 25.807 8.54827V7.10606C25.807 6.90263 25.9725 6.73721 26.1759 6.73721H26.4468C26.6501 6.73721 26.8156 6.90269 26.8156 7.10606V8.54827Z" fill="url(#paint4_linear_1_208)"/>
</g>
</g>
<defs>
<linearGradient id="paint0_linear_1_208" x1="14.9999" y1="3.19629" x2="14.9999" y2="26.8037" gradientUnits="userSpaceOnUse">
<stop stop-color="white"/>
<stop offset="1" stop-color="white"/>
</linearGradient>
<linearGradient id="paint1_linear_1_208" x1="26.3112" y1="16.209" x2="26.3112" y2="17.0904" gradientUnits="userSpaceOnUse">
<stop stop-color="white"/>
<stop offset="1" stop-color="white"/>
</linearGradient>
<linearGradient id="paint2_linear_1_208" x1="26.3112" y1="18.4453" x2="26.3112" y2="19.3267" gradientUnits="userSpaceOnUse">
<stop stop-color="white"/>
<stop offset="1" stop-color="white"/>
</linearGradient>
<linearGradient id="paint3_linear_1_208" x1="26.3112" y1="20.6816" x2="26.3112" y2="21.5631" gradientUnits="userSpaceOnUse">
<stop stop-color="white"/>
<stop offset="1" stop-color="white"/>
</linearGradient>
<linearGradient id="paint4_linear_1_208" x1="26.3112" y1="5.85571" x2="26.3112" y2="9.79851" gradientUnits="userSpaceOnUse">
<stop stop-color="white"/>
<stop offset="1" stop-color="white"/>
</linearGradient>
</defs>
</svg>
