<svg width="50" height="50" viewBox="0 0 50 50" fill="none" xmlns="http://www.w3.org/2000/svg">
<rect width="50" height="50" rx="10" fill="#0066FF"/>
<path d="M37.0319 34.2132L36.3561 30.5523C36.3038 30.2687 36.0839 30.0457 35.8013 29.9891L30.4863 28.9262C30.2553 28.8801 30.0165 28.9523 29.8498 29.1189L27.6675 31.3013C23.9894 29.6595 21.9569 27.6229 20.1666 23.7871L22.3422 21.6116C22.5087 21.445 22.581 21.2061 22.535 20.9751L21.472 15.66C21.4154 15.3772 21.1925 15.1575 20.9089 15.1052L17.2481 14.4295C17.1541 14.4119 17.0574 14.4141 16.9641 14.4353C16.0061 14.6529 15.132 15.1357 14.4362 15.8315C13.2318 17.0361 12.7717 18.796 13.106 20.9208C13.2582 21.8881 13.4845 22.8903 13.7784 23.8996C13.8874 24.2734 14.2792 24.4875 14.6522 24.3791C15.0259 24.2702 15.2405 23.8791 15.1317 23.5054C14.8543 22.5533 14.6413 21.61 14.4984 20.7016C14.2333 19.0165 14.5477 17.7133 15.433 16.828C15.9077 16.3532 16.4959 16.0144 17.1414 15.8428L20.1838 16.4045L21.0793 20.8817L18.8243 23.1365C18.6179 23.343 18.5601 23.6554 18.6791 23.9221C20.729 28.5127 23.1338 30.9156 27.5517 32.7876C27.8163 32.8996 28.122 32.84 28.325 32.637L30.5798 30.3821L35.0569 31.2775L35.6187 34.32C35.447 34.9653 35.1082 35.5536 34.6336 36.0284C33.748 36.9135 32.4445 37.228 30.7596 36.9627C27.3911 36.4328 22.7185 34.7974 19.7072 31.7979L19.6638 31.7546C18.2785 30.3638 17.0438 28.4455 16.0932 26.207C15.941 25.8488 15.5274 25.6819 15.1691 25.8339C14.8109 25.986 14.6438 26.3997 14.796 26.7579C15.8163 29.1603 17.1543 31.2321 18.668 32.7521L18.7116 32.7954C21.9628 36.0338 26.9538 37.7907 30.5405 38.355C30.9907 38.4258 31.4242 38.461 31.8398 38.461C33.3859 38.461 34.6803 37.974 35.6298 37.0247C36.3256 36.3289 36.8084 35.4547 37.026 34.4969C37.0473 34.4038 37.0493 34.3072 37.0319 34.2132Z" fill="white"/>
<path d="M27.2333 19.0132C26.844 19.0132 26.5286 19.3286 26.5286 19.7179C26.5286 20.1072 26.844 20.4226 27.2333 20.4226C28.9171 20.4226 30.2869 21.7924 30.2869 23.4762C30.2869 23.8602 30.6076 24.1809 30.9916 24.1809C31.3756 24.1809 31.6963 23.8602 31.6963 23.4762C31.6963 21.0153 29.6941 19.0132 27.2333 19.0132Z" fill="white"/>
<path d="M27.2335 16.0066C26.9572 16.0066 26.6782 16.0219 26.4045 16.052C26.0177 16.0947 25.7388 16.443 25.7814 16.8298C25.8241 17.2165 26.1721 17.4945 26.5591 17.4529C26.7818 17.4283 27.0085 17.4158 27.2334 17.4158C30.575 17.4158 33.2937 20.1345 33.2937 23.4761C33.2937 23.7011 33.2812 23.9279 33.2566 24.1504C33.214 24.5373 33.493 24.8856 33.8798 24.9283C34.2615 24.9695 34.6154 24.6875 34.6576 24.3051C34.6877 24.0314 34.703 23.7524 34.703 23.4761C34.7032 19.3574 31.3523 16.0066 27.2335 16.0066Z" fill="white"/>
<path d="M27.2334 13C26.9659 13 26.6952 13.0103 26.4285 13.0304C26.0405 13.0599 25.7496 13.3982 25.7792 13.7864C25.8087 14.1745 26.1454 14.4646 26.5351 14.4357C26.7663 14.4181 27.0014 14.4093 27.2335 14.4093C32.233 14.4093 36.3004 18.4767 36.3004 23.4762C36.3004 24.1836 36.2187 24.8877 36.0578 25.5692C35.9705 25.9383 36.2016 26.319 36.5684 26.4136C36.9454 26.5108 37.3399 26.2717 37.4292 25.8933C37.6153 25.1058 37.7096 24.2927 37.7096 23.4762C37.7097 17.6997 33.01 13 27.2334 13Z" fill="white"/>
</svg>
