<svg width="30" height="30" viewBox="0 0 30 30" fill="none" xmlns="http://www.w3.org/2000/svg">
<g id="recording" opacity="0.6" clip-path="url(#clip0_1_204)">
<g id="Group">
<g id="Group_2">
<path id="Vector" d="M13.2422 26.4844C14.3466 26.4844 14.8494 26.4422 16.0199 26.1925C17.3029 28.4636 19.74 30 22.5293 30C26.6487 30 30 26.6487 30 22.5293C30 20.3045 29.0186 18.2112 27.3073 16.786C27.1207 16.6307 26.8436 16.6559 26.6883 16.8425C26.533 17.029 26.5583 17.3061 26.7448 17.4614C28.255 18.7191 29.1211 20.5662 29.1211 22.5293C29.1211 26.164 26.164 29.1211 22.5293 29.1211C18.8946 29.1211 15.9375 26.164 15.9375 22.5293C15.9375 18.8946 18.8946 15.9375 22.5293 15.9375C23.5712 15.9375 24.5682 16.1737 25.4924 16.6397C25.6123 16.7002 25.7532 16.7025 25.875 16.6461C25.9968 16.5896 26.0861 16.4806 26.1175 16.3501C26.361 15.3382 26.4844 14.2925 26.4844 13.2422C26.4844 11.1633 26.0162 9.17309 25.0928 7.32674C24.2125 5.56652 22.9237 3.99557 21.3657 2.78373C21.1743 2.63473 20.8982 2.66924 20.7491 2.86078C20.6001 3.05238 20.6346 3.32848 20.8262 3.47748C23.8635 5.84004 25.6055 9.39914 25.6055 13.2422C25.6055 14.043 25.5287 14.8407 25.377 15.6206C24.4757 15.2474 23.5203 15.0586 22.5293 15.0586C21.7094 15.0586 20.9201 15.1913 20.1815 15.4365V10.4118C20.1815 10.1691 19.9848 9.9723 19.7421 9.9723C19.4993 9.9723 19.3026 10.1691 19.3026 10.4118V15.792C16.794 16.9981 15.0586 19.5647 15.0586 22.5293C15.0586 23.537 15.2591 24.4986 15.6224 25.3766C14.8422 25.5286 14.0434 25.6055 13.2422 25.6055C6.42504 25.6055 0.878906 20.0593 0.878906 13.2422C0.878906 6.42504 6.42504 0.878906 13.2422 0.878906C15.4543 0.878906 17.6246 1.46994 19.5186 2.5882C19.7277 2.7116 19.9972 2.64223 20.1204 2.43316C20.2438 2.22416 20.1744 1.95469 19.9654 1.83135C17.9363 0.633281 15.6114 0 13.2422 0C5.94041 0 0 5.94041 0 13.2422C0 20.544 5.94041 26.4844 13.2422 26.4844ZM22.5293 26.4844C20.3484 26.4844 18.5742 24.7102 18.5742 22.5293C18.5742 20.3484 20.3484 18.5742 22.5293 18.5742C24.7102 18.5742 26.4844 20.3484 26.4844 22.5293C26.4844 24.7102 24.7102 26.4844 22.5293 26.4844ZM22.5293 19.4531C20.8331 19.4531 19.4531 20.8331 19.4531 22.5293C19.4531 24.2255 20.8331 25.6055 22.5293 25.6055C24.2255 25.6055 25.6055 24.2255 25.6055 22.5293C25.6055 20.8331 24.2255 19.4531 22.5293 19.4531ZM11.0756 19.8771C10.8328 19.8771 10.6361 19.6803 10.6361 19.4376V7.04678C10.6361 6.80408 10.8328 6.60732 11.0756 6.60732C11.3183 6.60732 11.515 6.80408 11.515 7.04678V19.4376C11.515 19.6803 11.3183 19.8771 11.0756 19.8771ZM8.909 18.331C8.66625 18.331 8.46955 18.1342 8.46955 17.8915V8.59283C8.46955 8.35014 8.66625 8.15338 8.909 8.15338C9.15176 8.15338 9.34846 8.35014 9.34846 8.59283V17.8915C9.34846 18.1342 9.1517 18.331 8.909 18.331ZM15.4088 17.1893C15.1661 17.1893 14.9694 16.9925 14.9694 16.7498V9.73453C14.9694 9.49184 15.1661 9.29508 15.4088 9.29508C15.6516 9.29508 15.8483 9.49184 15.8483 9.73453V16.7498C15.8483 16.9925 15.6515 17.1893 15.4088 17.1893ZM6.74232 17.1238C6.49957 17.1238 6.30287 16.9271 6.30287 16.6844V9.79998C6.30287 9.55729 6.49957 9.36053 6.74232 9.36053C6.98508 9.36053 7.18178 9.55729 7.18178 9.79998V16.6843C7.18178 16.9271 6.98508 17.1238 6.74232 17.1238ZM13.2422 16.2087C12.9994 16.2087 12.8027 16.012 12.8027 15.7693V10.715C12.8027 10.4723 12.9994 10.2756 13.2422 10.2756C13.4849 10.2756 13.6816 10.4723 13.6816 10.715V15.7693C13.6816 16.012 13.4849 16.2087 13.2422 16.2087ZM17.5754 15.9011C17.3326 15.9011 17.1359 15.7044 17.1359 15.4617V11.0227C17.1359 10.78 17.3326 10.5832 17.5754 10.5832C17.8181 10.5832 18.0148 10.78 18.0148 11.0227V15.4617C18.0148 15.7044 17.8181 15.9011 17.5754 15.9011ZM4.57576 14.5924C4.33301 14.5924 4.13631 14.3956 4.13631 14.1529V12.3315C4.13631 12.0888 4.33301 11.892 4.57576 11.892C4.81852 11.892 5.01521 12.0888 5.01521 12.3315V14.1529C5.01521 14.3956 4.81846 14.5924 4.57576 14.5924ZM21.9086 14.3821C21.6659 14.3821 21.4692 14.1854 21.4692 13.9427V12.5418C21.4692 12.2991 21.6659 12.1023 21.9086 12.1023C22.1514 12.1023 22.3481 12.2991 22.3481 12.5418V13.9427C22.3481 14.1854 22.1514 14.3821 21.9086 14.3821ZM2.40914 14.0767C2.16639 14.0767 1.96969 13.8799 1.96969 13.6372V12.8472C1.96969 12.6045 2.16639 12.4078 2.40914 12.4078C2.65189 12.4078 2.84859 12.6045 2.84859 12.8472V13.6372C2.84859 13.8799 2.65189 14.0767 2.40914 14.0767ZM24.0752 14.0494C23.8325 14.0494 23.6358 13.8527 23.6358 13.61V12.8743C23.6358 12.6316 23.8325 12.4349 24.0752 12.4349C24.318 12.4349 24.5147 12.6316 24.5147 12.8743V13.61C24.5147 13.8527 24.3179 14.0494 24.0752 14.0494Z" fill="url(#paint0_linear_1_204)"/>
</g>
</g>
</g>
<defs>
<linearGradient id="paint0_linear_1_204" x1="15" y1="0" x2="15" y2="30" gradientUnits="userSpaceOnUse">
<stop stop-color="white"/>
<stop offset="1" stop-color="white"/>
</linearGradient>
<clipPath id="clip0_1_204">
<rect width="30" height="30" fill="white"/>
</clipPath>
</defs>
</svg>
