<svg width="30" height="30" viewBox="0 0 30 30" fill="none" xmlns="http://www.w3.org/2000/svg">
<g id="smart-home 1" clip-path="url(#clip0_1_446)">
<g id="g2268">
<g id="g2270">
<path id="path2272" d="M18.5789 11.0367L15 8.81319L7.36118 13.5589V24.4655H22.6387V13.5589L20.5698 12.2736" stroke="white" stroke-width="0.878906" stroke-miterlimit="10" stroke-linecap="round" stroke-linejoin="round"/>
</g>
<g id="g2274">
<g id="g2276">
<g id="g2282">
<path id="path2284" d="M20.577 12.2599C22.3517 13.3565 24.278 14.5466 24.278 14.5466C24.7935 14.867 25.4737 14.6594 25.7216 14.106C25.9258 13.65 25.7614 13.1134 25.3366 12.8494L15.4108 6.71419C15.1357 6.55716 14.8606 6.55716 14.5856 6.71419L4.65974 12.8494C4.23494 13.1134 4.07058 13.65 4.27484 14.106C4.52269 14.6594 5.20291 14.867 5.71842 14.5466L14.9982 8.81308C14.9982 8.81308 16.8833 9.97774 18.583 11.0279" stroke="white" stroke-width="0.878906" stroke-miterlimit="10" stroke-linecap="round" stroke-linejoin="round"/>
</g>
<g id="g2286">
<path id="path2288" d="M12.6094 22.4391V24.4656H17.3933V18.1346H12.6094V20.1013" stroke="white" stroke-width="0.878906" stroke-miterlimit="10" stroke-linecap="round" stroke-linejoin="round"/>
</g>
<g id="g2290">
<path id="path2292" d="M17.0643 7.73468V5.55657C17.0643 5.23302 17.3266 4.97064 17.6502 4.97064H20.0992C20.4228 4.97064 20.6852 4.70831 20.6852 4.3847V2.71495" stroke="white" stroke-width="0.878906" stroke-miterlimit="10" stroke-linecap="round" stroke-linejoin="round"/>
</g>
<g id="g2294">
<path id="path2296" d="M20.6826 2.67554C21.2991 2.67554 21.8007 2.17392 21.8007 1.55739C21.8007 0.940869 21.2991 0.439189 20.6826 0.439189C20.0661 0.439189 19.5645 0.940869 19.5645 1.55739C19.5645 2.17392 20.0661 2.67554 20.6826 2.67554Z" stroke="white" stroke-width="0.878906" stroke-miterlimit="10" stroke-linecap="round" stroke-linejoin="round"/>
</g>
<g id="g2298">
<path id="path2300" d="M20.0449 9.57739H23.9091C24.2327 9.57739 24.495 9.31507 24.495 8.99146V4.43298C24.495 4.10937 24.7574 3.84704 25.0809 3.84704H27.296" stroke="white" stroke-width="0.878906" stroke-miterlimit="10" stroke-linecap="round" stroke-linejoin="round"/>
</g>
<g id="g2302">
<path id="path2304" d="M12.9373 7.73468V5.55657C12.9373 5.23302 12.6749 4.97064 12.3513 4.97064H9.90234C9.57879 4.97064 9.31641 4.70831 9.31641 4.3847V2.71495" stroke="white" stroke-width="0.878906" stroke-miterlimit="10" stroke-linecap="round" stroke-linejoin="round"/>
</g>
<g id="g2306">
<path id="path2308" d="M9.31541 2.67554C8.69889 2.67554 8.19727 2.17392 8.19727 1.55739C8.19727 0.940869 8.69889 0.439189 9.31541 0.439189C9.93193 0.439189 10.4336 0.940869 10.4336 1.55739C10.4336 2.17392 9.93193 2.67554 9.31541 2.67554Z" stroke="white" stroke-width="0.878906" stroke-miterlimit="10" stroke-linecap="round" stroke-linejoin="round"/>
</g>
<g id="g2310">
<path id="path2312" d="M9.95812 9.57739H6.09398C5.77031 9.57739 5.50805 9.31507 5.50805 8.99146V4.43298C5.50805 4.10937 5.24566 3.84704 4.92211 3.84704H2.70703" stroke="white" stroke-width="0.878906" stroke-miterlimit="10" stroke-linecap="round" stroke-linejoin="round"/>
</g>
<g id="g2314">
<path id="path2316" d="M1.5576 4.87427C0.941074 4.87427 0.439453 4.37265 0.439453 3.75612C0.439453 3.13954 0.941074 2.63792 1.5576 2.63792C2.17412 2.63792 2.6758 3.13954 2.6758 3.75612C2.6758 4.37265 2.17412 4.87427 1.5576 4.87427Z" stroke="white" stroke-width="0.878906" stroke-miterlimit="10" stroke-linecap="round" stroke-linejoin="round"/>
</g>
<g id="g2318">
<path id="path2320" d="M28.4405 4.87402C27.8239 4.87402 27.3223 4.3724 27.3223 3.75588C27.3223 3.1393 27.8239 2.63768 28.4405 2.63768C29.057 2.63768 29.5586 3.1393 29.5586 3.75588C29.5586 4.3724 29.057 4.87402 28.4405 4.87402Z" stroke="white" stroke-width="0.878906" stroke-miterlimit="10" stroke-linecap="round" stroke-linejoin="round"/>
</g>
<g id="g2322">
<path id="path2324" d="M6.67869 29.5605C7.29521 29.5605 7.79684 29.0589 7.79684 28.4424C7.79684 27.8258 7.29521 27.3242 6.67869 27.3242C6.06217 27.3242 5.56055 27.8258 5.56055 28.4424C5.56055 29.0589 6.06217 29.5605 6.67869 29.5605Z" stroke="white" stroke-width="0.878906" stroke-miterlimit="10" stroke-linecap="round" stroke-linejoin="round"/>
</g>
<g id="g2326">
<path id="path2328" d="M10.8719 24.4653V27.8563C10.8719 28.1799 10.6096 28.4423 10.286 28.4423H7.80063" stroke="white" stroke-width="0.878906" stroke-miterlimit="10" stroke-linecap="round" stroke-linejoin="round"/>
</g>
<g id="g2330">
<path id="path2332" d="M23.3175 29.5605C22.701 29.5605 22.1994 29.0589 22.1994 28.4424C22.1994 27.8258 22.701 27.3242 23.3175 27.3242C23.934 27.3242 24.4357 27.8258 24.4357 28.4424C24.4357 29.0589 23.934 29.5605 23.3175 29.5605Z" stroke="white" stroke-width="0.878906" stroke-miterlimit="10" stroke-linecap="round" stroke-linejoin="round"/>
</g>
<g id="g2334">
<path id="path2336" d="M19.1309 24.4652V27.8563C19.1309 28.1798 19.3932 28.4422 19.7168 28.4422H22.2022" stroke="white" stroke-width="0.878906" stroke-miterlimit="10" stroke-linecap="round" stroke-linejoin="round"/>
</g>
<g id="g2338">
<path id="path2340" d="M22.6388 17.1618H24.4045C24.7281 17.1618 24.9905 17.4241 24.9905 17.7477V21.6324C24.9905 21.956 25.2527 22.2184 25.5764 22.2184H27.8558C28.1794 22.2184 28.4418 22.4807 28.4418 22.8043V24.9806" stroke="white" stroke-width="0.878906" stroke-miterlimit="10" stroke-linecap="round" stroke-linejoin="round"/>
</g>
<g id="g2342">
<path id="path2344" d="M28.4405 27.2168C27.8239 27.2168 27.3223 26.7152 27.3223 26.0987C27.3223 25.4821 27.8239 24.9804 28.4405 24.9804C29.057 24.9804 29.5586 25.4821 29.5586 26.0987C29.5586 26.7152 29.057 27.2168 28.4405 27.2168Z" stroke="white" stroke-width="0.878906" stroke-miterlimit="10" stroke-linecap="round" stroke-linejoin="round"/>
</g>
<g id="g2346">
<path id="path2348" d="M28.4405 20.239C27.8239 20.239 27.3223 19.7374 27.3223 19.1209C27.3223 18.5043 27.8239 18.0027 28.4405 18.0027C29.057 18.0027 29.5586 18.5043 29.5586 19.1209C29.5586 19.7374 29.057 20.239 28.4405 20.239Z" stroke="white" stroke-width="0.878906" stroke-miterlimit="10" stroke-linecap="round" stroke-linejoin="round"/>
</g>
<g id="g2350">
<path id="path2352" d="M24.9922 19.1213H27.3253" stroke="white" stroke-width="0.878906" stroke-miterlimit="10" stroke-linecap="round" stroke-linejoin="round"/>
</g>
<g id="g2354">
<path id="path2356" d="M7.36154 17.1619H5.59582C5.27227 17.1619 5.00988 17.4242 5.00988 17.7478V21.6325C5.00988 21.9562 4.74762 22.2185 4.42395 22.2185H2.14453C1.82092 22.2185 1.55859 22.4808 1.55859 22.8044V24.9807" stroke="white" stroke-width="0.878906" stroke-miterlimit="10" stroke-linecap="round" stroke-linejoin="round"/>
</g>
<g id="g2358">
<path id="path2360" d="M1.5576 27.2168C2.17412 27.2168 2.6758 26.7152 2.6758 26.0987C2.6758 25.4821 2.17412 24.9804 1.5576 24.9804C0.941074 24.9804 0.439453 25.4821 0.439453 26.0987C0.439453 26.7152 0.941074 27.2168 1.5576 27.2168Z" stroke="white" stroke-width="0.878906" stroke-miterlimit="10" stroke-linecap="round" stroke-linejoin="round"/>
</g>
<g id="g2362">
<path id="path2364" d="M1.5576 20.2394C2.17412 20.2394 2.6758 19.7378 2.6758 19.1212C2.6758 18.5047 2.17412 18.003 1.5576 18.003C0.941074 18.003 0.439453 18.5047 0.439453 19.1212C0.439453 19.7378 0.941074 20.2394 1.5576 20.2394Z" stroke="white" stroke-width="0.878906" stroke-miterlimit="10" stroke-linecap="round" stroke-linejoin="round"/>
</g>
<g id="g2366">
<path id="path2368" d="M5.01082 19.1213H2.73633" stroke="white" stroke-width="0.878906" stroke-miterlimit="10" stroke-linecap="round" stroke-linejoin="round"/>
</g>
</g>
</g>
</g>
</g>
<defs>
<clipPath id="clip0_1_446">
<rect width="30" height="30" fill="white"/>
</clipPath>
</defs>
</svg>
