<svg width="30" height="30" viewBox="0 0 30 30" fill="none" xmlns="http://www.w3.org/2000/svg">
<g id="temperature-2" opacity="0.6" clip-path="url(#clip0_1_212)">
<g id="Group">
<path id="Vector" d="M16.8921 18.2928V7.8117C16.8921 7.56895 16.6953 7.37225 16.4526 7.37225C16.2099 7.37225 16.0132 7.56895 16.0132 7.8117V18.528C16.0132 18.6778 16.0895 18.8173 16.2157 18.8981C17.8196 19.9245 18.7771 21.6725 18.7771 23.5739C18.7771 25.0702 18.1903 26.4731 17.1247 27.5238C16.0783 28.5556 14.6981 29.1211 13.2304 29.1211C13.2038 29.1211 13.1771 29.1209 13.1505 29.1205C11.708 29.1003 10.3464 28.5229 9.31622 27.4947C8.28608 26.4664 7.7063 25.1057 7.68362 23.6634C7.6531 21.7252 8.61034 19.9437 10.2443 18.8981C10.3705 18.8173 10.4468 18.6778 10.4468 18.528V3.6621C10.4468 2.12748 11.6954 0.878904 13.23 0.878904C14.7647 0.878904 16.0132 2.12748 16.0132 3.6621V5.73854C16.0132 5.9813 16.21 6.178 16.4527 6.178C16.6954 6.178 16.8921 5.9813 16.8921 5.73854V3.6621C16.8921 1.64279 15.2493 0 13.23 0C11.2108 0 9.56794 1.64279 9.56794 3.6621V18.2928C7.7994 19.5186 6.77079 21.5136 6.80484 23.6773C6.83114 25.3494 7.50251 26.9261 8.69536 28.1167C9.88809 29.3073 11.466 29.9759 13.1382 29.9994C13.1692 29.9998 13.2 30.0001 13.2309 30.0001C14.931 30.0001 16.5297 29.345 17.7419 28.1497C18.9763 26.9324 19.6561 25.3074 19.6561 23.574C19.656 21.4527 18.6273 19.4963 16.8921 18.2928Z" fill="url(#paint0_linear_1_212)"/>
<path id="Vector_2" d="M13.175 27.3629C12.8406 27.3582 12.5084 27.3084 12.1875 27.2147C11.9545 27.1467 11.7105 27.2805 11.6425 27.5135C11.5745 27.7464 11.7082 27.9904 11.9412 28.0584C12.3381 28.1743 12.7491 28.236 13.1631 28.2418C13.1847 28.2421 13.2061 28.2422 13.2277 28.2422C14.4645 28.2422 15.6272 27.7663 16.5077 26.8982C17.4045 26.0139 17.8983 24.8334 17.8983 23.5741C17.8983 21.9738 17.0922 20.5026 15.7421 19.6385C15.3616 19.395 15.1344 18.9799 15.1344 18.5281V16.2598C15.1344 16.017 14.9376 15.8203 14.6949 15.8203H11.7652C11.5225 15.8203 11.3258 16.017 11.3258 16.2598V18.528C11.3258 18.9797 11.0986 19.3949 10.718 19.6384C9.3426 20.5187 8.53676 22.0182 8.56242 23.6497C8.58176 24.8778 9.08402 26.0343 9.97682 26.9063C10.1504 27.0758 10.4286 27.0727 10.5983 26.8989C10.7678 26.7253 10.7646 26.4471 10.5909 26.2775C9.8652 25.5687 9.45692 24.6306 9.44121 23.6358C9.42041 22.3112 10.0748 21.0936 11.1918 20.3787C11.826 19.9728 12.2047 19.281 12.2047 18.528V16.6992H14.2555V18.528C14.2555 19.281 14.6341 19.9728 15.2683 20.3787C16.3648 21.0804 17.0194 22.2749 17.0194 23.574C17.0194 24.5961 16.6185 25.5544 15.8905 26.2723C15.1634 26.9893 14.2003 27.3747 13.175 27.3629Z" fill="url(#paint1_linear_1_212)"/>
<path id="Vector_3" d="M14.6948 3.69482H12.0644C11.8217 3.69482 11.6249 3.89152 11.6249 4.13428C11.6249 4.37703 11.8217 4.57373 12.0644 4.57373H14.6948C14.9375 4.57373 15.1343 4.37703 15.1343 4.13428C15.1343 3.89152 14.9375 3.69482 14.6948 3.69482Z" fill="url(#paint2_linear_1_212)"/>
<path id="Vector_4" d="M14.6948 5.41626H13.5292C13.2865 5.41626 13.0898 5.61296 13.0898 5.85571C13.0898 6.09847 13.2865 6.29517 13.5292 6.29517H14.6948C14.9375 6.29517 15.1343 6.09847 15.1343 5.85571C15.1343 5.61296 14.9375 5.41626 14.6948 5.41626Z" fill="url(#paint3_linear_1_212)"/>
<path id="Vector_5" d="M12.0644 8.01685H14.6948C14.9375 8.01685 15.1343 7.82015 15.1343 7.57739C15.1343 7.33464 14.9375 7.13794 14.6948 7.13794H12.0644C11.8217 7.13794 11.6249 7.33464 11.6249 7.57739C11.6249 7.82015 11.8216 8.01685 12.0644 8.01685Z" fill="url(#paint4_linear_1_212)"/>
<path id="Vector_6" d="M14.6948 8.85938H13.5292C13.2865 8.85938 13.0898 9.05607 13.0898 9.29883C13.0898 9.54158 13.2865 9.73828 13.5292 9.73828H14.6948C14.9375 9.73828 15.1343 9.54158 15.1343 9.29883C15.1343 9.05607 14.9375 8.85938 14.6948 8.85938Z" fill="url(#paint5_linear_1_212)"/>
<path id="Vector_7" d="M12.0644 11.46H14.6948C14.9375 11.46 15.1343 11.2633 15.1343 11.0205C15.1343 10.7778 14.9375 10.5811 14.6948 10.5811H12.0644C11.8217 10.5811 11.6249 10.7778 11.6249 11.0205C11.6249 11.2633 11.8216 11.46 12.0644 11.46Z" fill="url(#paint6_linear_1_212)"/>
<path id="Vector_8" d="M14.6948 12.3027H13.5292C13.2865 12.3027 13.0898 12.4994 13.0898 12.7422C13.0898 12.9849 13.2865 13.1816 13.5292 13.1816H14.6948C14.9375 13.1816 15.1343 12.9849 15.1343 12.7422C15.1343 12.4994 14.9375 12.3027 14.6948 12.3027Z" fill="url(#paint7_linear_1_212)"/>
<path id="Vector_9" d="M12.0644 14.9031H14.6948C14.9375 14.9031 15.1343 14.7064 15.1343 14.4636C15.1343 14.2209 14.9375 14.0242 14.6948 14.0242H12.0644C11.8217 14.0242 11.6249 14.2209 11.6249 14.4636C11.6249 14.7064 11.8216 14.9031 12.0644 14.9031Z" fill="url(#paint8_linear_1_212)"/>
<path id="Vector_10" d="M22.7566 9.97447C22.9994 9.97447 23.1961 9.77777 23.1961 9.53502V8.74494C23.1961 8.13117 22.6967 7.63184 22.083 7.63184H20.0061C19.3923 7.63184 18.8929 8.13117 18.8929 8.74494V16.3478C18.8929 16.9616 19.3923 17.4609 20.0061 17.4609H22.083C22.6967 17.4609 23.1961 16.9616 23.1961 16.3478V15.5578C23.1961 15.315 22.9994 15.1183 22.7566 15.1183C22.5139 15.1183 22.3172 15.315 22.3172 15.5578V16.3478C22.3172 16.477 22.2121 16.582 22.083 16.582H20.0061C19.877 16.582 19.7719 16.477 19.7719 16.3478V8.74494C19.7719 8.6158 19.877 8.51074 20.0061 8.51074H22.083C22.2121 8.51074 22.3172 8.6158 22.3172 8.74494V9.53502C22.3172 9.77777 22.5139 9.97447 22.7566 9.97447Z" fill="url(#paint9_linear_1_212)"/>
<path id="Vector_11" d="M19.3318 6.92938C19.5699 6.92938 19.763 6.73619 19.763 6.49789C19.763 6.25959 19.57 6.06641 19.3318 6.06641C19.0937 6.06641 18.9007 6.25959 18.9007 6.49789C18.9007 6.73619 19.0937 6.92938 19.3318 6.92938Z" fill="url(#paint10_linear_1_212)"/>
</g>
</g>
<defs>
<linearGradient id="paint0_linear_1_212" x1="13.2301" y1="0" x2="13.2301" y2="30.0001" gradientUnits="userSpaceOnUse">
<stop stop-color="white"/>
<stop offset="1" stop-color="white"/>
</linearGradient>
<linearGradient id="paint1_linear_1_212" x1="13.2301" y1="15.8203" x2="13.2301" y2="28.2422" gradientUnits="userSpaceOnUse">
<stop stop-color="white"/>
<stop offset="1" stop-color="white"/>
</linearGradient>
<linearGradient id="paint2_linear_1_212" x1="13.3796" y1="3.69482" x2="13.3796" y2="4.57373" gradientUnits="userSpaceOnUse">
<stop stop-color="white"/>
<stop offset="1" stop-color="white"/>
</linearGradient>
<linearGradient id="paint3_linear_1_212" x1="14.112" y1="5.41626" x2="14.112" y2="6.29517" gradientUnits="userSpaceOnUse">
<stop stop-color="white"/>
<stop offset="1" stop-color="white"/>
</linearGradient>
<linearGradient id="paint4_linear_1_212" x1="13.3796" y1="7.13794" x2="13.3796" y2="8.01685" gradientUnits="userSpaceOnUse">
<stop stop-color="white"/>
<stop offset="1" stop-color="white"/>
</linearGradient>
<linearGradient id="paint5_linear_1_212" x1="14.112" y1="8.85938" x2="14.112" y2="9.73828" gradientUnits="userSpaceOnUse">
<stop stop-color="white"/>
<stop offset="1" stop-color="white"/>
</linearGradient>
<linearGradient id="paint6_linear_1_212" x1="13.3796" y1="10.5811" x2="13.3796" y2="11.46" gradientUnits="userSpaceOnUse">
<stop stop-color="white"/>
<stop offset="1" stop-color="white"/>
</linearGradient>
<linearGradient id="paint7_linear_1_212" x1="14.112" y1="12.3027" x2="14.112" y2="13.1816" gradientUnits="userSpaceOnUse">
<stop stop-color="white"/>
<stop offset="1" stop-color="white"/>
</linearGradient>
<linearGradient id="paint8_linear_1_212" x1="13.3796" y1="14.0242" x2="13.3796" y2="14.9031" gradientUnits="userSpaceOnUse">
<stop stop-color="white"/>
<stop offset="1" stop-color="white"/>
</linearGradient>
<linearGradient id="paint9_linear_1_212" x1="21.0445" y1="7.63184" x2="21.0445" y2="17.4609" gradientUnits="userSpaceOnUse">
<stop stop-color="white"/>
<stop offset="1" stop-color="white"/>
</linearGradient>
<linearGradient id="paint10_linear_1_212" x1="19.3318" y1="6.06641" x2="19.3318" y2="6.92938" gradientUnits="userSpaceOnUse">
<stop stop-color="white"/>
<stop offset="1" stop-color="white"/>
</linearGradient>
<clipPath id="clip0_1_212">
<rect width="30" height="30" fill="white"/>
</clipPath>
</defs>
</svg>
